<svg width="238" height="67" viewBox="0 0 238 67" fill="none" xmlns="http://www.w3.org/2000/svg">
<path d="M43.1328 39.9338V7.89805C43.1328 7.72057 43.266 7.58746 43.4434 7.58746H48.7014C48.8789 7.58746 49.0119 7.72057 49.0119 7.89805V11.8471C49.0119 12.1798 49.4335 12.2907 49.611 12.0023C51.4967 8.87419 55.0242 7.23248 58.0192 7.23248C58.951 7.23248 59.7497 7.32121 60.5927 7.4987H60.7037V13.6219L60.504 13.5553C59.5278 13.2003 58.6626 13.0451 57.4868 13.0451C51.9182 13.0451 49.0119 18.5692 49.0119 24.049V39.9338C49.0119 40.1113 48.8789 40.2444 48.7014 40.2444H43.4434C43.266 40.2444 43.1328 40.1113 43.1328 39.9338Z" fill="#1D1D1B"/>
<path d="M191.775 40.2663C191.598 40.2663 191.465 40.1332 191.465 39.9558V21.0981C191.465 15.6405 189.091 12.3793 185.142 12.3793C179.795 12.3793 176.334 16.9716 176.334 24.0932V39.9779C176.334 40.1554 176.201 40.2885 176.024 40.2885H170.766C170.588 40.2885 170.455 40.1554 170.455 39.9779V21.1203C170.455 15.6627 168.125 12.4015 164.199 12.4015C158.896 12.4015 155.325 17.1048 155.325 24.1154V40.0001C155.325 40.1776 155.191 40.3107 155.014 40.3107H149.756C149.578 40.3107 149.445 40.1776 149.445 40.0001V7.96438C149.445 7.7869 149.601 7.65379 149.756 7.65379H155.014C155.191 7.65379 155.325 7.80909 155.325 7.96438V11.2034C155.325 11.514 155.724 11.6472 155.901 11.4031C158.009 8.60777 161.315 6.98822 165.042 6.98822C169.457 6.98822 172.984 9.18459 174.825 13.067C174.936 13.3111 175.269 13.3111 175.402 13.067C177.377 9.29552 181.281 6.98822 185.807 6.98822C192.84 6.98822 197.388 12.2018 197.388 20.2773V39.9779C197.388 40.1554 197.233 40.2885 197.077 40.2885H191.82L191.775 40.2663Z" fill="#1D1D1B"/>
<path d="M142.457 4.81423C142.457 7.47648 140.261 9.62846 137.576 9.62846C134.892 9.62846 132.695 7.47648 132.695 4.81423C132.695 2.15198 134.892 0 137.576 0C140.261 0 142.457 2.15198 142.457 4.81423Z" fill="#6429CD"/>
<path d="M123.711 5.23572C113.35 5.23572 104.964 13.5109 104.964 23.7384C104.964 33.9659 113.35 42.241 123.711 42.241C134.071 42.241 142.457 33.9659 142.457 23.7384C142.457 13.5109 134.071 5.23572 123.711 5.23572ZM123.844 36.5837C116.678 36.5837 110.865 30.8599 110.865 23.7827C110.865 16.7056 116.678 10.9818 123.844 10.9818C131.01 10.9818 136.822 16.7056 136.822 23.7827C136.822 30.8599 131.01 36.5837 123.844 36.5837Z" fill="#6429CD"/>
<path d="M129.702 41.6643C122.603 41.6643 116.856 47.3438 116.856 54.3322C116.856 61.3206 122.603 67.0001 129.702 67.0001C136.801 67.0001 142.547 61.3206 142.547 54.3322C142.547 47.3438 136.801 41.6643 129.702 41.6643ZM129.791 61.7199C125.664 61.7199 122.314 58.4143 122.314 54.3544C122.314 50.2944 125.664 46.9888 129.791 46.9888C133.917 46.9888 137.267 50.2944 137.267 54.3544C137.267 58.4143 133.917 61.7199 129.791 61.7199Z" fill="#6429CD"/>
<path d="M6.50389 6.3894H1.00195V52.3798H6.50389V6.3894Z" fill="#1D1D1B"/>
<path d="M18.4626 6.34497C8.81193 6.34497 0.980469 14.0655 0.980469 23.5831C0.980469 33.1006 8.81193 40.8211 18.4626 40.8211C28.1132 40.8211 35.9447 33.1006 35.9447 23.5831C35.9447 14.0655 28.1132 6.34497 18.4626 6.34497ZM18.5957 35.5854C11.9179 35.5854 6.50462 30.2387 6.50462 23.6496C6.50462 17.0605 11.9179 11.7139 18.5957 11.7139C25.2735 11.7139 30.6868 17.0605 30.6868 23.6496C30.6868 30.2387 25.2735 35.5854 18.5957 35.5854Z" fill="#1D1D1B"/>
<path d="M98.2637 6.34497H92.7617V40.8877H98.2637V6.34497Z" fill="#1D1D1B"/>
<path d="M80.781 40.9541C90.4316 40.9541 98.2631 33.2336 98.2631 23.716C98.2631 14.1985 90.4316 6.47797 80.781 6.47797C71.1303 6.47797 63.2988 14.1985 63.2988 23.716C63.2988 33.2336 71.1303 40.9541 80.781 40.9541ZM80.6478 11.7137C87.3257 11.7137 92.7389 17.0604 92.7389 23.6495C92.7389 30.2385 87.3257 35.5852 80.6478 35.5852C73.97 35.5852 68.5568 30.2385 68.5568 23.6495C68.5568 17.0604 73.97 11.7137 80.6478 11.7137Z" fill="#1D1D1B"/>
<path d="M237.921 6.34497H232.441V40.8877H237.921V6.34497Z" fill="#1D1D1B"/>
<path d="M220.461 40.9541C230.111 40.9541 237.943 33.2336 237.943 23.716C237.943 14.1985 230.111 6.47797 220.461 6.47797C210.81 6.47797 202.979 14.1985 202.979 23.716C202.979 33.2336 210.81 40.9541 220.461 40.9541ZM220.328 11.7137C227.005 11.7137 232.419 17.0604 232.419 23.6495C232.419 30.2385 227.005 35.5852 220.328 35.5852C213.65 35.5852 208.236 30.2385 208.236 23.6495C208.236 17.0604 213.65 11.7137 220.328 11.7137Z" fill="#1D1D1B"/>
</svg>
