<svg width="266" height="35" viewBox="0 0 266 35" fill="none" xmlns="http://www.w3.org/2000/svg">
<path d="M65.2011 10.969C67.6303 10.969 68.6063 12.7671 68.6063 14.5507C68.6063 16.3343 67.623 18.1324 65.2011 18.1324H62.1575V22.4536H60.6465V10.969H65.2011ZM65.0999 16.7186C66.5314 16.7186 67.0953 15.6528 67.0953 14.5507C67.0953 13.4486 66.5458 12.3683 65.1867 12.3683H62.1575V16.7186H65.0999Z" fill="#330072"/>
<path d="M75.3298 14.7754L75.0985 16.1457C74.6864 15.9427 74.2671 15.8775 73.9707 15.8775C72.4235 15.8775 71.809 17.5596 71.809 19.6114V22.4608H70.3486V14.6739H71.809V16.443C72.2066 15.0727 72.9585 14.4781 73.9851 14.4781C74.5346 14.4781 75.0985 14.6304 75.3298 14.7754Z" fill="#330072"/>
<path d="M82.6249 14.674H84.0708V22.4609H82.6249V21.0761C82.1116 22.0114 81.0271 22.6567 79.7836 22.6567C77.7521 22.6567 75.9736 20.9383 75.9736 18.5529C75.9736 16.1675 77.6509 14.4709 79.8487 14.4709C81.0127 14.4709 82.1116 14.9712 82.6249 15.892V14.674ZM82.6249 18.5602C82.6249 16.9578 81.2801 15.8413 79.9788 15.8413C78.5691 15.8413 77.434 17.0883 77.434 18.5602C77.434 20.032 78.5618 21.2936 79.9933 21.2936C81.4247 21.2936 82.6176 20.1408 82.6176 18.5602H82.6249Z" fill="#330072"/>
<path d="M92.7323 14.674H94.1782V21.3733C94.1782 25.0565 92.5154 26.4414 89.9561 26.4414C88.5463 26.4414 87.2306 25.7236 86.4642 24.3533L87.6933 23.7007C88.1776 24.5853 89.0886 25.071 89.9561 25.071C91.6695 25.071 92.7323 24.1067 92.7323 21.4676V21.2356C92.219 22.1201 91.0839 22.6567 89.9706 22.6567C87.8451 22.6567 86.0811 21.0036 86.0811 18.5529C86.0811 16.1023 87.8234 14.4709 89.9561 14.4709C91.1201 14.4709 92.219 14.9857 92.7323 15.892V14.674ZM92.7323 18.5384C92.7323 16.8563 91.3659 15.834 90.0862 15.834C88.6765 15.834 87.5414 16.9651 87.5414 18.5384C87.5414 20.1118 88.6692 21.2863 90.0862 21.2863C91.5032 21.2863 92.7323 20.1988 92.7323 18.5384Z" fill="#330072"/>
<path d="M108.926 17.9583V22.4608H107.48V18.0453C107.48 16.7475 106.764 15.8774 105.637 15.8774C104.256 15.8629 103.54 16.8272 103.54 18.5601V22.4608H102.094V18.0453C102.094 16.7257 101.378 15.8774 100.352 15.8774C99.2528 15.8774 98.1539 16.5952 98.1539 18.2483V22.4681H96.708V14.6811H98.1539V15.8847C98.5371 15.0364 99.5492 14.4854 100.648 14.4854C101.747 14.4854 102.759 15.0871 103.207 16.1529C103.923 14.7536 105.138 14.4854 105.918 14.4854C107.863 14.4854 108.926 15.7832 108.926 17.9728V17.9583Z" fill="#330072"/>
<path d="M117.457 14.674H118.903V22.4609H117.457V21.0761C116.944 22.0114 115.859 22.6567 114.616 22.6567C112.584 22.6567 110.806 20.9383 110.806 18.5529C110.806 16.1675 112.483 14.4709 114.681 14.4709C115.845 14.4709 116.944 14.9712 117.457 15.892V14.674ZM117.457 18.5602C117.457 16.9578 116.112 15.8413 114.811 15.8413C113.401 15.8413 112.266 17.0883 112.266 18.5602C112.266 20.032 113.394 21.2936 114.825 21.2936C116.257 21.2936 117.45 20.1408 117.45 18.5602H117.457Z" fill="#330072"/>
<path d="M125.72 22.4608V10.9762H130.209C133.484 10.9762 135.378 13.4776 135.378 16.7475C135.378 20.0175 133.484 22.4681 130.209 22.4681H125.72V22.4608ZM128.149 20.2422H130.209C132.024 20.2422 132.949 18.6254 132.949 16.7403C132.949 14.8552 132.017 13.1876 130.209 13.1876H128.149V20.2422Z" fill="#330072"/>
<path d="M144.243 21.0397C143.448 22.2071 142.031 22.6203 140.7 22.6203C138.488 22.6203 136.645 20.989 136.645 18.5384C136.645 16.0877 138.488 14.4999 140.7 14.4999C142.913 14.4999 144.677 16.153 144.677 18.6036C144.677 18.8066 144.662 19.1184 144.64 19.3214H138.958C139.088 20.2205 140.035 20.6192 140.867 20.6192C141.517 20.6192 142.182 20.4017 142.558 19.8869L144.236 21.0397H144.243ZM142.349 17.8713C142.219 16.9215 141.387 16.5372 140.722 16.5372C140.057 16.5372 139.175 16.8708 138.994 17.8713H142.349Z" fill="#330072"/>
<path d="M148.262 19.2561C145.92 18.6399 145.934 17.4363 145.934 16.7185C145.934 15.5657 147.329 14.4999 148.956 14.4999C150.489 14.4999 152.151 15.1669 152.151 17.081H149.975C149.961 16.501 149.477 16.3995 149.093 16.3995C148.58 16.3995 148.262 16.6315 148.276 16.9795C148.291 17.226 148.493 17.4435 148.956 17.5596L150.272 17.9076C152.151 18.4441 152.383 19.6622 152.383 20.177C152.383 21.83 150.655 22.6131 149.021 22.6131C147.387 22.6131 145.782 21.6633 145.782 19.9304H147.944C147.958 20.38 148.443 20.8295 149.093 20.8295C149.607 20.815 150.04 20.583 150.04 20.177C150.04 19.8434 149.86 19.6622 149.274 19.5099L148.262 19.2416V19.2561Z" fill="#330072"/>
<path d="M155.167 10.4397C155.947 10.4397 156.576 11.0052 156.576 11.7883C156.576 12.5713 155.962 13.1586 155.167 13.1586C154.371 13.1586 153.721 12.5423 153.721 11.7883C153.721 11.0342 154.386 10.4397 155.167 10.4397ZM156.316 22.4609H154.024V14.6739H156.316V22.4609Z" fill="#330072"/>
<path d="M160.068 23.0119C160.336 23.7442 161.247 24.259 162.027 24.259C163.806 24.259 164.254 23.0264 164.175 21.4893C163.791 22.2071 162.83 22.6204 161.847 22.6204C159.851 22.6204 157.972 21.0543 157.972 18.5892C157.972 16.124 159.851 14.5072 161.847 14.5072C162.808 14.5072 163.777 14.9422 164.175 15.6383V14.674H166.416V21.3733C166.416 24.723 164.767 26.3399 162.027 26.3399C160.314 26.3399 158.868 25.3756 158.203 23.9255L160.068 23.0119ZM162.244 16.7113C161.247 16.7113 160.379 17.4436 160.379 18.5457C160.379 19.6477 161.247 20.4453 162.244 20.4453C163.242 20.4453 164.124 19.6912 164.124 18.5457C164.124 17.4001 163.213 16.7113 162.244 16.7113Z" fill="#330072"/>
<path d="M170.861 22.4609H168.548V14.674H170.861V15.805C171.281 15.022 172.177 14.5072 173.102 14.5072C174.845 14.5072 175.944 15.5948 175.944 17.8061V22.4609H173.63V18.3064C173.63 17.2551 173.066 16.7548 172.286 16.7548C171.505 16.7548 170.854 17.1536 170.854 18.3354V22.4536L170.861 22.4609Z" fill="#330072"/>
<path d="M184.156 19.0893C184.207 19.8216 184.757 20.4742 185.87 20.4742C186.868 20.4742 187.533 20.0101 187.547 19.2561C187.562 18.7413 187.316 18.2918 186.166 17.9583L184.785 17.574C182.255 16.7765 181.829 15.3264 181.829 14.2751C181.829 12.2232 183.571 10.8384 185.769 10.8384C187.966 10.8384 189.644 12.158 189.644 14.3548H187.215C187.215 13.5718 186.716 13.057 185.733 13.057C184.887 13.057 184.25 13.521 184.25 14.2098C184.25 14.5071 184.352 15.0581 185.48 15.3771L186.846 15.8122C189.622 16.6097 190.041 18.1975 189.991 19.2779C189.94 21.5472 187.916 22.642 185.87 22.642C183.39 22.642 181.713 21.1557 181.713 19.0893H184.156Z" fill="#330072"/>
<path d="M194.198 26.2745H191.755L193.62 21.656L190.627 14.6738H193.085L194.798 19.0893L196.526 14.6738H198.984L194.198 26.2745Z" fill="#330072"/>
<path d="M202.05 19.2561C199.708 18.6399 199.722 17.4363 199.722 16.7185C199.722 15.5657 201.117 14.4999 202.744 14.4999C204.277 14.4999 205.94 15.1669 205.94 17.081H203.763C203.749 16.501 203.265 16.3995 202.881 16.3995C202.368 16.3995 202.05 16.6315 202.065 16.9795C202.079 17.226 202.281 17.4435 202.744 17.5596L204.06 17.9076C205.94 18.4441 206.171 19.6622 206.171 20.177C206.171 21.83 204.443 22.6131 202.809 22.6131C201.175 22.6131 199.57 21.6633 199.57 19.9304H201.732C201.746 20.38 202.231 20.8295 202.881 20.8295C203.395 20.815 203.829 20.583 203.829 20.177C203.829 19.8434 203.648 19.6622 203.062 19.5099L202.05 19.2416V19.2561Z" fill="#330072"/>
<path d="M212.453 14.6739V16.5083H210.827V22.4609H208.535V16.5083H207.125V14.6739H208.535V11.6868H210.827V14.6739H212.453Z" fill="#330072"/>
<path d="M220.883 21.0397C220.088 22.2071 218.671 22.6203 217.341 22.6203C215.129 22.6203 213.285 20.989 213.285 18.5384C213.285 16.0877 215.129 14.4999 217.341 14.4999C219.553 14.4999 221.317 16.153 221.317 18.6036C221.317 18.8066 221.303 19.1184 221.281 19.3214H215.599C215.729 20.2205 216.676 20.6192 217.507 20.6192C218.158 20.6192 218.823 20.4017 219.199 19.8869L220.876 21.0397H220.883ZM218.989 17.8713C218.859 16.9215 218.028 16.5372 217.363 16.5372C216.698 16.5372 215.816 16.8708 215.635 17.8713H218.989Z" fill="#330072"/>
<path d="M230.144 18.3425V22.4608H227.83V18.2628C227.816 17.2622 227.216 16.762 226.551 16.762C225.835 16.762 225.206 17.1607 225.206 18.3425V22.4608H222.893V14.6738H225.206V15.8049C225.589 14.9856 226.384 14.5216 227.238 14.5216C228.467 14.5216 229.298 14.9711 229.732 15.8919C230.498 14.6738 231.496 14.5071 232.06 14.5071C233.925 14.5071 235.053 15.6889 235.053 18.0453V22.4608H232.761V18.3063C232.761 17.2912 232.161 16.7547 231.481 16.7547C230.751 16.7547 230.151 17.2042 230.151 18.3353L230.144 18.3425Z" fill="#330072"/>
<path d="M47.1314 0.889893H47.1237C46.6903 0.889893 46.3389 1.16499 46.3389 1.50433V34.3469C46.3389 34.6862 46.6903 34.9613 47.1237 34.9613H47.1314C47.5649 34.9613 47.9162 34.6862 47.9162 34.3469V1.50433C47.9162 1.16499 47.5649 0.889893 47.1314 0.889893Z" fill="#330072"/>
<path d="M20.6366 10.8681C21.5023 10.8681 22.2041 10.1793 22.2041 9.32956C22.2041 8.47984 21.5023 7.79102 20.6366 7.79102C19.7709 7.79102 19.0691 8.47984 19.0691 9.32956C19.0691 10.1793 19.7709 10.8681 20.6366 10.8681Z" fill="#330072"/>
<path d="M22.197 15.3738C22.197 12.1113 19.5089 9.46006 16.202 9.46006C12.8951 9.46006 10.207 12.1044 10.207 15.3738C10.207 18.6432 12.8951 21.2876 16.202 21.2876C19.5089 21.2876 22.197 18.6432 22.197 15.3738ZM12.0908 15.3944C12.0908 13.1347 13.947 11.3008 16.2433 11.3008C18.5395 11.3008 20.3957 13.1347 20.3957 15.3944C20.3957 17.6542 18.5395 19.488 16.2433 19.488C13.947 19.488 12.0908 17.6542 12.0908 15.3944Z" fill="#330072"/>
<path d="M18.1135 21.109C15.8447 21.109 14.0022 22.9223 14.0022 25.1614C14.0022 27.4005 15.8447 29.2138 18.1135 29.2138C20.3822 29.2138 22.2247 27.4005 22.2247 25.1614C22.2247 22.9223 20.3822 21.109 18.1135 21.109ZM18.141 27.5242C16.821 27.5242 15.7485 26.4664 15.7485 25.1683C15.7485 23.8701 16.821 22.8124 18.141 22.8124C19.461 22.8124 20.5335 23.8701 20.5335 25.1683C20.5335 26.4664 19.461 27.5242 18.141 27.5242Z" fill="#330072"/>
<path d="M16.9995 34.9614C13.6926 34.9614 10.4599 33.9807 7.71027 32.1435C4.96064 30.3062 2.81757 27.6949 1.55206 24.6397C0.286542 21.5845 -0.0445753 18.2226 0.600579 14.9792C1.24573 11.7358 2.83818 8.75649 5.17655 6.41812C7.51492 4.07976 10.4942 2.48731 13.7376 1.84216C16.981 1.197 20.3429 1.52812 23.3981 2.79363C26.4533 4.05915 29.0647 6.20222 30.9019 8.95185C32.7392 11.7015 33.7198 14.9342 33.7198 18.2411C33.7149 22.6741 31.9517 26.9241 28.8171 30.0587C25.6825 33.1933 21.4325 34.9565 16.9995 34.9614ZM16.9995 3.36794C14.0581 3.36612 11.1822 4.23652 8.73537 5.86909C6.28858 7.50165 4.38081 9.82307 3.25328 12.5398C2.12574 15.2566 1.82908 18.2467 2.40081 21.132C2.97253 24.0173 4.38697 26.6684 6.46527 28.7499C8.54357 30.8314 11.1924 32.25 14.0769 32.8261C16.9613 33.4023 19.9519 33.1103 22.6703 31.987C25.3888 30.8637 27.7132 28.9595 29.3496 26.5152C30.9859 24.071 31.8608 21.1964 31.8635 18.2549C31.8586 14.3134 30.2913 10.5346 27.5051 7.74664C24.7189 4.9587 20.9411 3.38907 16.9995 3.38176V3.36794Z" fill="#330072"/>
<path d="M244.114 21.9217L246.083 17.1685H247.218L244.728 22.9417H243.477L240.987 17.1685H242.122L244.114 21.9217Z" fill="#330072"/>
<path d="M250.754 22.2056C252.066 21.4064 253.116 20.6142 253.904 19.829C254.691 19.0368 255.085 18.3007 255.085 17.6207C255.085 17.2001 254.965 16.8636 254.726 16.6112C254.494 16.3518 254.116 16.2221 253.591 16.2221C253.051 16.2221 252.642 16.3798 252.364 16.6953C252.086 17.0038 251.931 17.4314 251.9 17.9782H250.858C250.912 17.151 251.194 16.5165 251.704 16.0749C252.213 15.6262 252.869 15.4019 253.672 15.4019C254.437 15.4019 255.043 15.5876 255.49 15.9592C255.938 16.3308 256.162 16.8566 256.162 17.5366C256.162 18.0974 255.961 18.6688 255.56 19.2507C255.166 19.8255 254.668 20.3618 254.066 20.8596C253.471 21.3503 252.858 21.7675 252.225 22.111H256.37V22.8997H250.754V22.2056Z" fill="#330072"/>
<path d="M258.459 21.8165V22.9417H257.185V21.8165H258.459Z" fill="#330072"/>
<path d="M259.477 19.1876C259.477 20.3794 259.693 21.3083 260.126 21.9743C260.558 22.6403 261.307 22.9733 262.372 22.9733C263.438 22.9733 264.187 22.6403 264.619 21.9743C265.059 21.3083 265.279 20.3794 265.279 19.1876C265.279 18.0098 265.059 17.0879 264.619 16.4219C264.187 15.7559 263.438 15.4229 262.372 15.4229C261.307 15.4229 260.558 15.7559 260.126 16.4219C259.693 17.0809 259.477 18.0028 259.477 19.1876ZM264.237 19.1876C264.237 19.7975 264.187 20.3093 264.086 20.7229C263.994 21.1295 263.812 21.4555 263.542 21.7009C263.272 21.9462 262.882 22.0689 262.372 22.0689C261.87 22.0689 261.484 21.9462 261.214 21.7009C260.944 21.4555 260.759 21.1295 260.658 20.7229C260.566 20.3093 260.519 19.7975 260.519 19.1876C260.519 18.5847 260.566 18.0799 260.658 17.6733C260.759 17.2667 260.944 16.9442 261.214 16.7058C261.484 16.4605 261.87 16.3378 262.372 16.3378C262.882 16.3378 263.272 16.4605 263.542 16.7058C263.812 16.9442 263.994 17.2667 264.086 17.6733C264.187 18.0799 264.237 18.5847 264.237 19.1876Z" fill="#330072"/>
</svg>
